<svg width="32" height="32" viewBox="0 0 32 32" fill="none" xmlns="http://www.w3.org/2000/svg">
  <!-- Heart shape -->
  <path d="M16 28L4.5 16.5C1.5 13.5 1.5 8.5 4.5 5.5C7.5 2.5 12.5 2.5 15.5 5.5L16 6L16.5 5.5C19.5 2.5 24.5 2.5 27.5 5.5C30.5 8.5 30.5 13.5 27.5 16.5L16 28Z" fill="url(#heart_gradient)"/>
  <!-- Currency symbol (₽ stylized) -->
  <path d="M13 11H17.5C18.88 11 20 12.12 20 13.5C20 14.88 18.88 16 17.5 16H13V11Z" fill="white" fill-opacity="0.9"/>
  <rect x="12" y="10" width="2" height="12" rx="1" fill="white" fill-opacity="0.9"/>
  <rect x="11" y="17" width="7" height="2" rx="1" fill="white" fill-opacity="0.9"/>
  <defs>
    <linearGradient id="heart_gradient" x1="4" y1="4" x2="28" y2="28" gradientUnits="userSpaceOnUse">
      <stop stop-color="#16A34A"/>
      <stop offset="0.5" stop-color="#07C983"/>
      <stop offset="1" stop-color="#15803D"/>
    </linearGradient>
  </defs>
</svg>
