<svg viewBox="0 0 3200 747" fill="none" xmlns="http://www.w3.org/2000/svg">
  <path d="M823.6 13.2345C817.867 29.3679 799.733 73.6345 795.2 82.4345C793.867 85.2345 790.267 93.5012 787.2 100.968C784.267 108.435 778.533 121.234 774.4 129.501C770.267 137.635 760.4 159.368 752.533 177.768C744.533 196.034 732.4 224.434 725.333 240.834L712.533 270.568L736 302.834C748.8 320.568 759.867 336.034 760.533 337.101C762.267 340.034 762.933 338.968 775.2 315.768C781.333 304.434 792.133 284.301 799.2 271.101C806.4 257.901 815.6 240.301 819.867 232.168C829.067 214.034 830 213.101 833.467 218.034C836.8 222.834 873.467 288.034 929.867 389.768C943.6 414.434 968.933 454.035 984.8 475.234C990 482.301 997.067 492.301 1000.53 497.501C1017.87 523.368 1067.6 579.901 1090.13 599.368C1133.47 636.835 1164.13 656.435 1210.53 676.168C1250.13 692.968 1284.8 700.568 1328 702.035C1379.87 703.635 1418.8 695.235 1465.2 672.035C1508 650.701 1535.07 631.901 1563.2 603.768C1588.4 578.701 1605.07 555.368 1622.4 521.101C1641.6 483.234 1649.47 456.301 1655.87 405.768C1658.53 384.301 1658.8 377.901 1657.87 364.434C1655.47 329.768 1652.27 313.634 1640.93 280.168L1635.87 265.101L1636.27 300.168C1636.8 334.434 1636.53 338.834 1631.73 372.434C1626.27 410.168 1610.13 451.101 1586.4 486.701C1571.47 509.368 1562.4 520.168 1544.4 537.901C1528.27 553.635 1509.47 568.301 1490.13 580.168C1474 590.168 1463.07 595.501 1441.2 604.168C1400.4 620.301 1381.6 624.168 1343.87 624.168C1307.73 624.301 1286.93 620.435 1253.33 607.368C1212.4 591.635 1178.13 569.501 1144 537.234C1114.27 508.968 1093.2 483.635 1064.27 441.101C1060.53 435.634 1054.67 427.501 1051.2 423.101C1034.4 401.368 997.467 345.501 982.533 319.101C977.6 310.301 969.733 297.101 965.2 289.768C942.4 253.368 884.533 140.701 863.467 91.7678C853.333 68.3011 840.8 35.2346 835.867 19.1012C833.2 10.3012 830.533 1.90112 830 0.56781C829.2 -1.43219 827.733 1.63452 823.6 13.2345Z" fill="#16A34A"/>
  <path d="M1305.87 55.768C1302.53 56.3013 1294.8 57.5013 1288.53 58.4347C1275.33 60.4347 1250.93 67.1013 1231.87 74.0347C1167.73 97.2346 1104.27 142.835 1049.47 205.101C1034.4 222.301 1003.2 262.835 1003.2 265.368C1003.2 266.168 1007.6 273.768 1012.93 282.301C1018.4 290.835 1025.33 302.301 1028.53 307.768C1037.07 322.701 1047.33 338.435 1048.4 338.435C1048.93 338.435 1052.67 333.901 1056.67 328.435C1092.93 278.301 1107.47 260.835 1137.6 230.835C1166.27 202.168 1173.6 196.035 1198.4 179.368C1228.93 158.835 1252.4 148.701 1289.2 140.301C1304 136.835 1307.07 136.568 1331.87 136.835C1372.13 137.101 1396.4 141.768 1427.07 155.501C1483.33 180.701 1525.87 221.635 1551.2 274.835C1569.6 313.635 1576.27 347.768 1574.8 396.168C1574.4 410.035 1574.27 421.101 1574.53 420.835C1574.8 420.568 1576.8 414.035 1579.07 406.435C1594.93 351.501 1596.4 301.635 1583.87 251.635C1575.07 216.701 1558.8 183.368 1536.93 155.101C1528.27 143.768 1508.27 123.501 1496.53 113.768C1463.6 86.8347 1418.53 64.8347 1384.53 59.1013C1377.6 58.0347 1368.93 56.4347 1365.47 55.768C1358 54.168 1314.67 54.3013 1305.87 55.768Z" fill="#16A34A"/>
  <path d="M291.7 53.3346C283.3 54.4012 252.5 64.1346 232.233 72.1346C196.9 86.1346 162.633 109.068 135.833 136.801C119.566 153.601 112.1 162.935 102.1 179.468C77.0328 220.668 66.6328 258.401 66.4995 308.001C66.4995 331.735 67.6995 345.068 71.9662 366.001C75.1662 381.868 84.7662 412.001 86.6328 412.001C87.2995 412.001 87.5662 410.668 87.1662 408.935C82.7662 389.335 81.6995 373.201 83.6995 351.335C85.6995 330.401 87.8328 319.601 93.4328 303.468C112.1 249.201 147.166 202.135 190.5 173.468C211.3 159.735 228.9 151.068 252.633 143.201C280.366 134.001 290.9 132.001 315.166 131.068C344.1 130.135 360.5 132.001 383.3 138.801C406.233 145.601 429.166 156.935 453.3 173.201C476.766 188.801 492.766 202.268 521.7 230.668C567.166 275.201 602.233 319.335 638.5 377.335C642.366 383.601 646.9 390.801 648.5 393.335C654.366 402.668 663.7 418.401 675.833 439.335C682.633 451.068 690.766 464.801 693.833 470.001C723.433 519.201 797.833 670.268 816.633 719.335C825.566 742.668 826.9 746.001 827.7 746.935C828.633 748.001 843.566 715.201 858.5 680.001C862.766 670.135 868.9 656.535 872.1 650.001C875.433 643.335 879.7 634.268 881.7 629.735C883.566 625.201 891.833 607.601 899.966 590.401C908.1 573.335 921.966 543.868 930.633 524.935L946.366 490.535L923.566 457.601C911.166 439.468 899.833 423.601 898.633 422.268C896.5 420.001 895.966 420.535 889.833 432.268C886.366 439.068 877.566 455.468 870.5 468.668C863.433 481.868 851.7 503.601 844.5 516.935C835.966 532.935 830.633 541.335 829.3 541.335C827.966 541.335 823.833 535.335 818.366 525.601C813.433 517.068 805.033 502.135 799.566 492.668C794.1 483.068 780.1 458.535 768.5 438.001C745.833 397.868 740.5 388.401 718.766 351.335C672.233 271.335 646.233 235.601 604.5 193.868C562.366 152.001 526.1 122.535 489.033 100.535C457.966 82.0013 443.9 75.0012 411.367 63.9346C379.633 53.2679 375.233 49.8346 335.5 49.4346C316.033 49.1679 296.5 52.6679 291.7 53.3346Z" fill="#16A34A"/>
  <path d="M15.3333 276.434C4 307.901 0 334.568 0 377.768C0.133333 412.434 2.4 433.101 9.33333 460.301C30.4 543.768 83.4667 613.368 159.733 657.101C189.067 673.901 227.6 688.834 261.333 696.434C314.667 708.434 371.733 705.234 420.533 687.768C436.533 682.034 468.133 667.501 483.867 658.701C496.8 651.501 522.133 634.168 538.533 621.368C575.867 592.434 617.067 548.168 647.6 504.434L654.933 493.768L640.8 470.301C622.4 440.168 609.467 419.901 608.4 419.768C608 419.768 603.467 426.168 598.4 434.034C552.533 505.501 495.067 561.901 438.133 590.834C422.933 598.568 393.333 610.168 379.6 613.634C348.667 621.634 303.333 621.901 269.2 614.301C247.067 609.368 206.4 595.501 189.2 586.968C139.333 562.434 89.4667 517.634 60.5333 471.501C39.0667 437.101 24.6667 397.768 18.5333 356.434C16.1333 339.634 15.7333 303.368 17.8667 287.768C20.6667 267.234 20.9333 265.101 20.1333 265.101C19.7333 265.101 17.6 270.168 15.3333 276.434Z" fill="#16A34A"/>
  <text x="1750" y="470" font-family="Arial, sans-serif" font-size="280" font-weight="bold" fill="#09090B">Love&amp;Pay</text>
</svg>
